<?xml version="1.0" encoding="UTF-8"?>
<svg id="Capa_1" xmlns="http://www.w3.org/2000/svg" version="1.1" viewBox="0 0 512 512">
  <!-- Generator: Adobe Illustrator 29.0.1, SVG Export Plug-In . SVG Version: 2.1.0 Build 192)  -->
  <defs>
    <style>
      .st0 {
        fill: #4c4c4c;
      }
    </style>
  </defs>
  <g>
    <path class="st0" d="M490.7,165c-3-1-5.7-1.9-8.4-2.8v-18.3c0-12.2-7.8-23.1-19.4-27.1-33.5-11.4-69.4-22.1-104.9-23.6-37.3-1.6-70.8,7.2-102,26.7-41.7-26-87.1-32.9-142.4-21.5-4,.8-6.7,4.8-5.8,8.9.8,4.1,4.8,6.7,8.9,5.8,52.2-10.7,93.1-4.6,131.9,19.8v19.6c5,5.5,10,11,15,16.6v-36.2c64.8-40.7,129-24.2,194.6-1.9,5.5,1.9,9.2,7,9.2,12.9v261c-37.5-13-77.6-25.8-118.3-25.8s-57,6.2-85.5,22.7v-60.6c-4.9-5.6-9.9-11.2-15-16.8v77.4c-69.5-40.4-140.2-18.9-203.8,3.1V143.8c0-5.8,3.7-11,9.2-12.9,13.1-4.5,23.8-7.9,33.7-10.7,4-1.1,6.3-5.3,5.1-9.3-1.2-4-5.3-6.3-9.3-5.1-10.1,2.9-21,6.3-34.3,10.9-11.6,3.9-19.4,14.8-19.4,27.1v18.3C14.1,167.3.1,176,.1,194.7v286.8c0,20.1,20.3,35.1,39.6,28.7,51-16.8,143.8-56.1,189.8-8.8,12.9,13.3,39.5,14.1,52.8.9,28.7-28.4,77-23.5,112.9-15.4,4,.9,8.1-1.6,9-5.7.9-4-1.6-8.1-5.7-9-41.3-9.3-94.1-13-126.8,19.4-7.3,7.2-24.2,6.8-31.5-.7-51.2-52.8-147.6-14-205.2,5-9.7,3.2-20-4.3-20-14.5V194.8c0-9.4,6.8-14.1,14.7-16.8v259.6c0,18.3,18.5,31.9,36.1,26.1,26.7-8.8,58.3-18,89.7-19.3,31.8-1.4,60.1,5.5,86.4,21,8.6,5.1,19.6,5.1,28.2,0,26.3-15.5,54.5-22.4,86.4-21,31.4,1.3,62.9,10.5,89.7,19.3,17.6,5.8,36.1-7.8,36.1-26.1V178c7.9,2.7,14.7,7.4,14.7,16.8v286.8c0,10.2-10.2,17.6-20,14.5-16.1-5.3-32.2-10.8-48.4-15.6-4-1.2-8.2,1.1-9.3,5-1.2,4,1.1,8.2,5,9.3,16.1,4.8,32,10.3,48,15.5,19.4,6.4,39.6-8.6,39.6-28.7V194.8c0-13.5-8.6-25.5-21.3-29.8h0ZM467.3,437.5c0,4-1.9,7.7-5.2,10.1-3.3,2.4-7.4,3-11.3,1.8-56.9-18.7-123.1-35.5-188.4,3.1-4,2.4-9,2.4-13,0-65.2-38.5-131.4-21.8-188.4-3.1-8,2.6-16.4-3.5-16.4-11.9v-16.8c36.9-12.8,70.3-23.4,103.3-26,39.4-3.2,72.3,5.4,103.7,26.9,2.6,1.8,6.1,1.7,8.6,0,31.3-21.5,64.2-30,103.6-26.8,33,2.7,66.4,13.2,103.3,26v16.8h.2Z"/>
    <path class="st0" d="M122.5,55.9l-10.9-5.9-5.9-10.9c-3.5-5.2-11.8-6.2-15.2,0l-5.9,10.9-10.9,5.9c-5.9,3.2-5.9,11.9,0,15.2l10.9,5.9,5.9,10.9c3.2,5.8,12,5.9,15.2,0l5.9-10.9,10.9-5.9c5.9-3.2,5.9-11.9,0-15.2ZM105.7,67.6c-1.5.8-2.6,2-3.4,3.4l-4.1,7.5-4.1-7.5c-.8-1.5-2-2.6-3.4-3.4l-7.5-4.1,7.5-4.1c1.5-.8,2.6-2,3.4-3.4l4.1-7.5,4.1,7.5c.8,1.4,2,2.6,3.4,3.4l7.5,4.1-7.5,4.1Z"/>
    <path class="st0" d="M448.9,155l-7.2-3.9-3.9-7.2c-2.1-3.9-7.9-3.9-10,0l-3.9,7.2-7.2,3.9c-3.9,2.1-3.9,7.9,0,10l7.2,3.9,3.9,7.2c2.1,3.9,7.9,3.9,10,0l3.9-7.2,7.2-3.9c3.9-2.1,3.9-7.9,0-10ZM437.8,162.8c-1,.5-1.7,1.3-2.3,2.3l-2.7,5-2.7-5c-.5-1-1.3-1.8-2.3-2.3l-5-2.7,5-2.7c1-.5,1.8-1.3,2.3-2.3l2.7-5,2.7,5c.5,1,1.3,1.8,2.3,2.3l5,2.7-5,2.7Z"/>
  </g>
  <path class="st0" d="M112.8,346.7l-7.1-3.9-3-1.6-5.5-10.1c-1.8-3.2-5.3-4.6-8.5-4-2.3.4-4.4,1.7-5.6,4l-5.5,10.1-10.1,5.5c-5.5,3-5.5,11.1,0,14.1l10.1,5.5,5.5,10.1c3,5.4,11.1,5.4,14.1,0l5.5-10.1,10.1-5.5c5.5-3,5.5-11.1,0-14.1ZM97.1,357.6c-1.4.7-2.5,1.8-3.2,3.2l-3.8,7-3.8-7c-.7-1.4-1.8-2.5-3.2-3.2l-7-3.8,7-3.8c1.4-.7,2.5-1.8,3.2-3.2l3.8-7,3.8,7c.7,1.4,1.8,2.5,3.2,3.2l7,3.8-7,3.8Z"/>
  <g>
    <path class="st0" d="M372.9,180.5h-18.5v91c0,27,.6,43.7-7.3,55.3-.3.4-.5.8-.8,1.1h0c-5.2,6.7-11.1,8.5-12,8.8-1,.3-3,.8-2.7,2,.2,1.2,2.2.9,7-.3,2.9-.7,5.9-2,7.8-3,.4-.2.8-.3,1.2-.6,15.1-7.6,20.6-18.5,23.8-28.2,2.6-8,2.9-18.4,3.4-27.4.4-8,0-17.2,0-24v-29.2c0-14.1.1-20.3.2-24,0,0,.2-6.7.2-7,.2-2.6.3-4.8,1.1-7,.6-1.5,1.4-2.9,2.7-3.9,2.3-1.9,5.9-.9,5.9-2.5s-3.3-1.4-11.9-1.4v.3Z"/>
    <path class="st0" d="M202.6,189.6c-2.8-2.2-10-9-30.5-9h-33c-8.6,0-11.9-.4-11.9,1.4s3.6.6,5.9,2.5c1,.8,1.8,1.9,2.3,3.1,1.4,4,1.6,10.7,1.7,13.4.3,4.7.5,12,.5,25.3v27.8c0,9.7,0,22.4-.2,29.2v2.3h0c0,1.6-.2,3.5-.4,5.5v.6c-.3,2.3-.6,4-1.2,5.3-.6,1.1-1.3,2.1-2.2,2.9-2.3,1.9-5.9.9-5.9,2.5s3.3,1.4,11.9,1.4h18.4v-112.8c0-1.7.5-2.7,1.3-3,1.5-.5,3.9-.6,6.4-.6,3.8,0,10.5.9,16.4,6.2,9.2,7.9,9.8,18.5,9.7,23.7-.2,9.3-3.2,15.5-6.9,19.7-7.6,7.5-13.5,6.6-14.5,6.7-1.3,0-3.2.3-3,1.5.1,1.3,2,1.4,7,1.1,5.1-.3,8.9-1.5,10.2-2,14.2-4.6,28.7-16.1,27.7-35.8-.5-10.3-5.9-16-9.4-18.8h-.3Z"/>
    <path class="st0" d="M313,180.4c-7.4,0-10.3-.3-10.3,1.4s3.6.6,5.9,2.5c.7.6,1.3,1.3,1.8,2.1.7,1.2,1.1,3,1.4,4.8.9,5,.8,10.9.8,10.9h0v60.8c-7.6-7.3-67.6-67-83.3-82-.5-.5-1.4-.8-2.1-.7-1.1.2-1.4,1.4-1.5,2.2v121.2h13.8c8.6,0,11.9.4,11.9-1.4s-3.6-.6-5.9-2.5c-.5-.4-1-.9-1.4-1.5,0,0-.1-.2-.2-.3h0c-2.5-4.3-2.4-16-2.4-16h0v-60.8s68.3,66.5,84.1,82.1c.4.3,1.3.5,1.9.3,1.1-.4,1.2-1.7,1.3-2.4h0v-120.7h-15.8,0Z"/>
  </g>
</svg>