<?xml version="1.0" encoding="UTF-8"?>
<svg id="Layer_1" xmlns="http://www.w3.org/2000/svg" version="1.1" viewBox="0 0 544.7 540.8">
  <!-- Generator: Adobe Illustrator 29.0.1, SVG Export Plug-In . SVG Version: 2.1.0 Build 192)  -->
  <defs>
    <style>
      .st0 {
        fill: #4c4c4c;
      }
    </style>
  </defs>
  <path class="st0" d="M524.9,442.9l-94.3-94.3c-7.8-7.8-17.5-13-28.1-15.1,21.2-33.9,32.6-73.1,32.6-114.1s-22.4-111.8-63.2-152.6C331.2,26,277,3.6,219.3,3.6s-111.8,22.4-152.6,63.2S3.5,161.7,3.5,219.4s22.4,111.8,63.2,152.6c40.8,40.8,95,63.2,152.6,63.2s83.5-12.3,118.3-35.3c2.3,10.1,7.3,19.4,14.8,26.8l94.3,94.3c10.4,10.4,24.3,16.2,39.1,16.2s28.6-5.8,39.1-16.2c10.4-10.4,16.2-24.3,16.2-39.1s-5.8-28.6-16.2-39.1h0ZM34.5,219.4c0-101.9,82.9-184.8,184.8-184.8s184.8,82.9,184.8,184.8-82.9,184.8-184.8,184.8S34.5,321.3,34.5,219.4ZM503,499.1c-4.6,4.6-10.7,7.1-17.2,7.1s-12.6-2.5-17.2-7.1l-94.3-94.3c-4.6-4.6-7.1-10.7-7.1-17.2s2.5-12.6,7.1-17.2,10.7-7.1,17.2-7.1,12.6,2.5,17.2,7.1l94.3,94.3c4.6,4.6,7.1,10.7,7.1,17.2s-2.5,12.6-7.1,17.2h0Z"/>
  <path class="st0" d="M219.8,225.9c42,0,76.2-34.2,76.2-76.2s-34.2-76.2-76.2-76.2-76.2,34.2-76.2,76.2,34.2,76.2,76.2,76.2ZM219.8,104.5c24.9,0,45.2,20.3,45.2,45.2s-20.3,45.2-45.2,45.2-45.2-20.3-45.2-45.2,20.3-45.2,45.2-45.2Z"/>
  <path class="st0" d="M375.5,286.1c.2-2.8.2-6.9-.1-9.5-1.4-14.1-9.7-26.6-23.4-35.2-14.6-10-42.4-18.3-65.7-14.1-53.5,8.5-109.9,5.2-132.9.1-.3,0-.7-.1-1-.2-33.1-4.9-53.2,5.6-65.4,14.2-13.7,8.6-22,21-23.4,35.1-.3,2.6-.4,6.7,0,9.5.5,8.2,2.6,15.5,6.5,22.2,14.4,25.2,57.1,83.8,140.7,83.8h17.8c83.6,0,126.2-58.6,140.7-83.8,3.9-6.7,6-14,6.5-22.2h-.2ZM344.7,280.8v-.6.6ZM94.3,280.2v.6-.6ZM344.7,283.2v.9c-.2,3.5-.9,6.2-2.4,8.8-7,12.3-19.5,29.9-39.2,44.3-21.6,15.8-46.7,23.9-74.6,23.9h-17.8c-27.9,0-53-8-74.6-23.9-19.6-14.4-32.1-32.1-39.2-44.3-1.5-2.6-2.2-5.3-2.4-8.8v-4.4c.4-4.5,3.5-8.5,9.2-12,.3-.2.5-.3.8-.5,9-6.3,21.2-12.4,43-9.2,29.9,6.4,90.2,8.6,144,0h.3c15.2-2.8,35.1,3.7,43,9.2.3.2.5.4.8.5,5.6,3.5,8.7,7.5,9.2,12v3.5h0Z"/>
</svg>