<svg width="22" height="25" viewBox="0 0 22 25" fill="none" xmlns="http://www.w3.org/2000/svg">
<path d="M16.2857 6.25C16.2857 9.1445 13.925 11.5 11 11.5C8.07503 11.5 5.71429 9.1445 5.71429 6.25C5.71429 3.3555 8.07503 1 11 1C13.925 1 16.2857 3.3555 16.2857 6.25ZM11 15.8438C12.3466 15.8438 13.6293 15.5615 14.7914 15.0625H15.4C18.4968 15.0625 21 17.5596 21 20.625V22.6562C21 23.3925 20.3973 24 19.6429 24H2.35714C1.60271 24 1 23.3925 1 22.6562V20.625C1 17.5596 3.50315 15.0625 6.6 15.0625H7.20937C8.37385 15.561 9.65208 15.8438 11 15.8438Z" stroke="#4D4D4D" stroke-width="2"/>
</svg>
