<?xml version="1.0" encoding="utf-8"?>
<!-- Generator: Adobe Illustrator 27.3.1, SVG Export Plug-In . SVG Version: 6.00 Build 0)  -->
<svg version="1.1" xmlns="http://www.w3.org/2000/svg" xmlns:xlink="http://www.w3.org/1999/xlink" x="0px" y="0px"
	 viewBox="0 0 1917.1 649.9" style="enable-background:new 0 0 1917.1 649.9;" xml:space="preserve">
<style type="text/css">
	.st0{display:none;}
	.st1{display:inline;}
	.st2{fill:none;stroke:#A5A5A5;stroke-miterlimit:10;}
	.st3{fill:none;stroke:#A5A5A5;stroke-miterlimit:10;stroke-dasharray:2.0011,2.0011;}
	.st4{fill:none;stroke:#A5A5A5;stroke-miterlimit:10;stroke-dasharray:2.006,2.006;}
	.st5{display:inline;fill:none;stroke:#A5A5A5;stroke-miterlimit:10;stroke-dasharray:2;}
	.st6{display:inline;fill:none;stroke:#A5A5A5;stroke-miterlimit:10;}
	.st7{fill:#C86338;}
</style>
<g id="guide" class="st0">
	<g class="st1">
		<g>
			<line class="st2" x1="0" y1="200" x2="1" y2="200"/>
			<line class="st3" x1="3" y1="200" x2="1915.1" y2="200"/>
			<line class="st2" x1="1916.1" y1="200" x2="1917.1" y2="200"/>
		</g>
	</g>
	<g class="st1">
		<g>
			<line class="st2" x1="0" y1="400" x2="1" y2="400"/>
			<line class="st3" x1="3" y1="400" x2="1915.1" y2="400"/>
			<line class="st2" x1="1916.1" y1="400" x2="1917.1" y2="400"/>
		</g>
	</g>
	<g class="st1">
		<g>
			<line class="st2" x1="0" y1="450" x2="1" y2="450"/>
			<line class="st3" x1="3" y1="450" x2="1915.1" y2="450"/>
			<line class="st2" x1="1916.1" y1="450" x2="1917.1" y2="450"/>
		</g>
	</g>
	<g class="st1">
		<g>
			<line class="st2" x1="0" y1="550" x2="1" y2="550"/>
			<line class="st3" x1="3" y1="550" x2="1915.1" y2="550"/>
			<line class="st2" x1="1916.1" y1="550" x2="1917.1" y2="550"/>
		</g>
	</g>
	<g class="st1">
		<g>
			<line class="st2" x1="210.9" y1="0" x2="210.9" y2="1"/>
			<line class="st4" x1="210.9" y1="3" x2="210.9" y2="647.9"/>
			<line class="st2" x1="210.9" y1="648.9" x2="210.9" y2="649.9"/>
		</g>
	</g>
	<g class="st1">
		<g>
			<line class="st2" x1="421.7" y1="0" x2="421.7" y2="1"/>
			<line class="st4" x1="421.7" y1="3" x2="421.7" y2="647.9"/>
			<line class="st2" x1="421.7" y1="648.9" x2="421.7" y2="649.9"/>
		</g>
	</g>
	<g class="st1">
		<g>
			<line class="st2" x1="446.7" y1="0" x2="446.7" y2="1"/>
			<line class="st4" x1="446.7" y1="3" x2="446.7" y2="647.9"/>
			<line class="st2" x1="446.7" y1="648.9" x2="446.7" y2="649.9"/>
		</g>
	</g>
	<g class="st1">
		<g>
			<line class="st2" x1="679" y1="0" x2="679" y2="1"/>
			<line class="st4" x1="679" y1="3" x2="679" y2="647.9"/>
			<line class="st2" x1="679" y1="648.9" x2="679" y2="649.9"/>
		</g>
	</g>
	<g class="st1">
		<g>
			<line class="st2" x1="859.8" y1="0" x2="859.8" y2="1"/>
			<line class="st4" x1="859.8" y1="3" x2="859.8" y2="647.9"/>
			<line class="st2" x1="859.8" y1="648.9" x2="859.8" y2="649.9"/>
		</g>
	</g>
	<g class="st1">
		<g>
			<line class="st2" x1="899.8" y1="0" x2="899.8" y2="1"/>
			<line class="st4" x1="899.8" y1="3" x2="899.8" y2="647.9"/>
			<line class="st2" x1="899.8" y1="648.9" x2="899.8" y2="649.9"/>
		</g>
	</g>
	<g class="st1">
		<g>
			<line class="st2" x1="1080.1" y1="0" x2="1080.1" y2="1"/>
			<line class="st4" x1="1080.1" y1="3" x2="1080.1" y2="647.9"/>
			<line class="st2" x1="1080.1" y1="648.9" x2="1080.1" y2="649.9"/>
		</g>
	</g>
	<g class="st1">
		<g>
			<line class="st2" x1="1105.1" y1="0" x2="1105.1" y2="1"/>
			<line class="st4" x1="1105.1" y1="3" x2="1105.1" y2="647.9"/>
			<line class="st2" x1="1105.1" y1="648.9" x2="1105.1" y2="649.9"/>
		</g>
	</g>
	<g class="st1">
		<g>
			<line class="st2" x1="1298.7" y1="0" x2="1298.7" y2="1"/>
			<line class="st4" x1="1298.7" y1="3" x2="1298.7" y2="647.9"/>
			<line class="st2" x1="1298.7" y1="648.9" x2="1298.7" y2="649.9"/>
		</g>
	</g>
	<g class="st1">
		<g>
			<line class="st2" x1="1338.7" y1="0" x2="1338.7" y2="1"/>
			<line class="st4" x1="1338.7" y1="3" x2="1338.7" y2="647.9"/>
			<line class="st2" x1="1338.7" y1="648.9" x2="1338.7" y2="649.9"/>
		</g>
	</g>
	<g class="st1">
		<g>
			<line class="st2" x1="1520.4" y1="0" x2="1520.4" y2="1"/>
			<line class="st4" x1="1520.4" y1="3" x2="1520.4" y2="647.9"/>
			<line class="st2" x1="1520.4" y1="648.9" x2="1520.4" y2="649.9"/>
		</g>
	</g>
	<g class="st1">
		<g>
			<line class="st2" x1="1550.4" y1="0" x2="1550.4" y2="1"/>
			<line class="st4" x1="1550.4" y1="3" x2="1550.4" y2="647.9"/>
			<line class="st2" x1="1550.4" y1="648.9" x2="1550.4" y2="649.9"/>
		</g>
	</g>
	<g class="st1">
		<g>
			<line class="st2" x1="1706.2" y1="0" x2="1706.2" y2="1"/>
			<line class="st4" x1="1706.2" y1="3" x2="1706.2" y2="647.9"/>
			<line class="st2" x1="1706.2" y1="648.9" x2="1706.2" y2="649.9"/>
		</g>
	</g>
	<g class="st1">
		<g>
			<line class="st2" x1="653.3" y1="0" x2="653.3" y2="1"/>
			<line class="st4" x1="653.3" y1="3" x2="653.3" y2="647.9"/>
			<line class="st2" x1="653.3" y1="648.9" x2="653.3" y2="649.9"/>
		</g>
	</g>
	<path class="st5" d="M159.5,0l-53.6,93.7h-0.6L51.1,0H0v200h45.4V66.8h0.9l16.8,31.5l42.2,70.5L148.4,98l16.2-29.2h1V200h45.3V0
		H159.5z"/>
	<path class="st5" d="M1865.7,449.9l-53.6,93.7h-0.6l-54.2-93.7h-51.1v200h45.4V516.7h0.9l16.8,31.5l42.2,70.5l43.1-70.8l16.2-29.2
		h1v131.2h45.3v-200H1865.7z"/>
	<rect class="st5" width="1917.1" height="649.9"/>
	<line class="st6" x1="1917.1" y1="-32.5" x2="0" y2="-32.5"/>
	<line class="st6" x1="421.7" y1="-38.1" x2="421.7" y2="-26.9"/>
	<line class="st6" x1="210.9" y1="-38.1" x2="210.9" y2="-26.9"/>
	<line class="st6" x1="446.7" y1="-38.1" x2="446.7" y2="-26.9"/>
	<line class="st6" x1="654" y1="-38.1" x2="654" y2="-26.9"/>
	<line class="st6" x1="679" y1="-38.1" x2="679" y2="-26.9"/>
	<line class="st6" x1="859.8" y1="-38.1" x2="859.8" y2="-26.9"/>
	<line class="st6" x1="899.8" y1="-38.1" x2="899.8" y2="-26.9"/>
	<line class="st6" x1="1080.1" y1="-38.1" x2="1080.1" y2="-26.9"/>
	<line class="st6" x1="1105.1" y1="-38.1" x2="1105.1" y2="-26.9"/>
	<line class="st6" x1="1298.7" y1="-38.1" x2="1298.7" y2="-26.9"/>
	<line class="st6" x1="1338.7" y1="-38.1" x2="1338.7" y2="-26.9"/>
	<line class="st6" x1="1520.4" y1="-38.1" x2="1520.4" y2="-26.9"/>
	<line class="st6" x1="1550.4" y1="-38.1" x2="1550.4" y2="-26.9"/>
	<line class="st6" x1="1706.2" y1="-38.1" x2="1706.2" y2="-26.9"/>
	<line class="st6" x1="1936.7" y1="200" x2="1948" y2="200"/>
	<line class="st6" x1="1936.7" y1="400" x2="1948" y2="400"/>
	<line class="st6" x1="1936.7" y1="450" x2="1948" y2="450"/>
	<line class="st6" x1="1936.7" y1="549.9" x2="1948" y2="549.9"/>
	<line class="st6" x1="1942.4" y1="0" x2="1942.4" y2="649.9"/>
	
		<text transform="matrix(1 0 0 1 419.4509 -47.2722)" style="display:inline;fill:#707070; font-family:'MyriadPro-Regular'; font-size:24px;">2.5</text>
	
		<text transform="matrix(1 0 0 1 289.2029 -47.2722)" style="display:inline;fill:#191919; font-family:'MyriadPro-Regular'; font-size:24px;">21.09</text>
	
		<text transform="matrix(1 0 0 1 523.2741 -47.2722)" style="display:inline;fill:#191919; font-family:'MyriadPro-Regular'; font-size:24px;">20.73</text>
	
		<text transform="matrix(1 0 0 1 742.2859 -47.2722)" style="display:inline;fill:#191919; font-family:'MyriadPro-Regular'; font-size:24px;">18.07</text>
	
		<text transform="matrix(1 0 0 1 962.809 -47.2722)" style="display:inline;fill:#191919; font-family:'MyriadPro-Regular'; font-size:24px;">18.03</text>
	
		<text transform="matrix(1 0 0 1 1174.7855 -47.2722)" style="display:inline;fill:#191919; font-family:'MyriadPro-Regular'; font-size:24px;">19.37</text>
	
		<text transform="matrix(1 0 0 1 1401.0242 -47.2722)" style="display:inline;fill:#191919; font-family:'MyriadPro-Regular'; font-size:24px;">18.17</text>
	
		<text transform="matrix(1 0 0 1 1599.6901 -47.2722)" style="display:inline;fill:#191919; font-family:'MyriadPro-Regular'; font-size:24px;">15.58</text>
	
		<text transform="matrix(1 0 0 1 651.7203 -47.2722)" style="display:inline;fill:#707070; font-family:'MyriadPro-Regular'; font-size:24px;">2.5</text>
	
		<text transform="matrix(1 0 0 1 873.6146 -47.2722)" style="display:inline;fill:#707070; font-family:'MyriadPro-Regular'; font-size:24px;">4</text>
	
		<text transform="matrix(1 0 0 1 1077.7665 -47.2722)" style="display:inline;fill:#707070; font-family:'MyriadPro-Regular'; font-size:24px;">2.5</text>
	
		<text transform="matrix(1 0 0 1 1312.5665 -47.2722)" style="display:inline;fill:#707070; font-family:'MyriadPro-Regular'; font-size:24px;">4</text>
	
		<text transform="matrix(1 0 0 1 1529.2412 -47.2722)" style="display:inline;fill:#707070; font-family:'MyriadPro-Regular'; font-size:24px;">3</text>
	<text transform="matrix(1 0 0 1 1971.3207 311.108)" class="st1" style="font-family:'MyriadPro-Regular'; font-size:24px;">20</text>
	<text transform="matrix(1 0 0 1 1971.3207 505.8599)" class="st1" style="font-family:'MyriadPro-Regular'; font-size:24px;">10</text>
	<g class="st1">
		<text transform="matrix(1 0 0 1 1971.3207 431.2177)" style="fill:#707070; font-family:'MyriadPro-Regular'; font-size:24px;">5</text>
	</g>
</g>
<g id="logo">
	<path class="st7" d="M370.4,200l-53.6,93.7h-0.6L261.9,200h-51.1v200h45.4V266.8h0.9l16.8,31.5l42.2,70.5l43.1-70.8l16.2-29.2h1
		V400h45.3V200H370.4z"/>
	<path class="st7" d="M814.4,200v134.7h-1l-21.2-40.1L731.7,200H679v200h45.3V265.3h1l21.2,40.1l60.6,94.6h52.6V200H814.4z"/>
	<path class="st7" d="M1041,335c-3.4,8.2-8.6,15.2-15.6,21.1c-7,5.8-16.4,8.7-28.2,8.7c-14.1,0-25.4-4.2-33.9-12.5
		c-8.5-8.3-12.8-20.4-12.8-36.3v-32.1c0-15.9,4.3-28,12.8-36.3c8.5-8.3,19.8-12.5,33.9-12.5c12,0,21.1,2.5,27.3,7.6
		c6.2,5.1,10.8,11.8,13.7,20.2l41.3-19.5c-8-16.3-18.6-28.1-31.8-35.7c-13.2-7.6-30.1-11.3-50.4-11.3c-14.9,0-28.4,2.3-40.4,6.9
		c-12,4.6-22.2,11.3-30.6,20.2c-8.4,8.9-14.9,19.9-19.5,33c-4.6,13.1-6.9,28-6.9,44.9c0,17,2.3,31.9,6.9,44.6
		c4.6,12.7,11.1,23.3,19.5,31.8c8.4,8.5,18.6,14.9,30.6,19.2c12,4.3,25.4,6.4,40.4,6.4c20.4,0,37.2-4.1,50.6-12.5
		c13.3-8.3,24.1-20.1,32.3-35.4L1041,335z"/>
	<path class="st7" d="M1291.8,255.1c-4.6-12.9-11.1-23.7-19.6-32.4s-18.6-15.2-30.6-19.6c-12-4.4-25.2-6.6-39.7-6.6
		s-27.8,2.2-39.7,6.6c-12,4.4-22.2,11-30.6,19.6c-8.4,8.7-14.9,19.5-19.6,32.4c-4.6,12.9-6.9,27.9-6.9,44.9c0,17,2.3,32,6.9,44.9
		c4.6,12.9,11.1,23.7,19.6,32.4c8.4,8.7,18.6,15.2,30.6,19.6c12,4.4,25.2,6.6,39.7,6.6s27.8-2.2,39.7-6.6
		c12-4.4,22.2-10.9,30.6-19.6c8.4-8.7,14.9-19.5,19.6-32.4c4.6-12.9,6.9-27.8,6.9-44.9C1298.7,283,1296.4,268,1291.8,255.1z
		 M1247.9,314.9c0,16.1-4,28.4-12.1,37c-8.1,8.6-19.4,12.9-33.9,12.9s-25.8-4.3-33.9-12.9c-8.1-8.6-12.1-20.9-12.1-37v-29.8
		c0-16.1,4-28.4,12.1-37c8.1-8.6,19.4-12.9,33.9-12.9s25.8,4.3,33.9,12.9c8.1,8.6,12.1,20.9,12.1,37V314.9z"/>
	<path class="st7" d="M1513.4,256.3c-4.7-12.5-11.3-22.9-19.8-31.2c-8.5-8.3-18.8-14.6-30.9-18.8c-12.1-4.2-25.5-6.3-40.2-6.3h-83.8
		v200h83.8c14.7,0,28-2.1,40.2-6.3c12.1-4.2,22.4-10.5,30.9-18.8c8.5-8.3,15.1-18.7,19.8-31.2c4.7-12.5,7-27.1,7-43.7
		S1518.1,268.8,1513.4,256.3z M1469.1,315.5c0,16-4.1,27.7-12.4,35c-8.3,7.3-19.6,10.9-34.1,10.9h-35.4V238.7h35.4
		c14.5,0,25.8,3.6,34.1,10.9c8.3,7.3,12.4,18.9,12.4,35V315.5z"/>
	<g>
		<rect x="1550.4" y="278.9" class="st7" width="155.8" height="39.7"/>
		<rect x="1550.4" y="360.3" class="st7" width="155.8" height="39.7"/>
		<rect x="1550.4" y="200" class="st7" width="155.8" height="39.7"/>
	</g>
	<g>
		<path class="st7" d="M580.9,200h-60.9l-73.2,200H497l15.8-47.6l36.1-112.9h1.6l36.7,112.9l16.5,47.6H654L580.9,200z"/>
	</g>
	<g>
		<g>
			<g>
				<path class="st7" d="M1704.7,450c-7.1,0-15.1,0-15.1,0l0,73.8c0,21.9,0.5,35.4-6,44.8c-0.2,0.3-0.4,0.6-0.7,0.9c0,0,0,0,0,0
					c-4.2,5.4-9.1,6.9-9.9,7.1c-0.8,0.2-2.4,0.6-2.2,1.6c0.2,1,1.8,0.8,5.7-0.2c2.3-0.6,4.8-1.7,6.4-2.4c0.3-0.1,0.6-0.3,1-0.5
					c12.4-6.2,16.9-15,19.5-22.8c2.1-6.5,2.4-14.9,2.8-22.2c0.3-6.5,0.1-13.9,0.1-19.4v-23.7c0-11.4,0.1-16.4,0.2-19.5
					c0,0,0.1-5.4,0.2-5.6c0.2-2.1,0.3-3.9,0.9-5.7c0.5-1.2,1.2-2.3,2.2-3.2c1.9-1.5,4.8-0.8,4.8-2
					C1714.4,449.7,1711.7,450,1704.7,450z M1565.4,457.4c-2.3-1.8-8.2-7.3-25-7.3c-6.2,0-27,0-27,0c-7.1,0-9.8-0.3-9.8,1.1
					c0,1.3,2.9,0.5,4.8,2c0.8,0.7,1.4,1.6,1.9,2.5c1.1,3.2,1.3,8.7,1.4,10.9c0.2,3.8,0.4,9.7,0.4,20.5v22.5c0,7.9,0,18.2-0.2,23.7
					c0,0.5,0,1.1-0.1,1.9l0,0c0,0,0,0,0,0c-0.1,1.3-0.2,2.8-0.4,4.4c0,0.2,0,0.3-0.1,0.5c-0.3,1.9-0.5,3.2-1,4.3
					c-0.5,0.9-1,1.7-1.8,2.4c-1.9,1.5-4.8,0.8-4.8,2c0,1.5,2.7,1.1,9.8,1.1c7.1,0,15.1,0,15.1,0l0-91.4c0-1.4,0.4-2.2,1.1-2.4
					c1.2-0.4,3.2-0.5,5.2-0.5c3.1,0,8.6,0.8,13.4,5c7.5,6.4,8,15,7.9,19.2c-0.2,7.5-2.7,12.6-5.6,16c-6.2,6.1-11,5.4-11.9,5.4
					c-1.1,0-2.6,0.3-2.5,1.2c0.1,1,1.7,1.1,5.7,0.9c4.2-0.2,7.3-1.2,8.3-1.6c11.6-3.7,23.5-13.1,22.7-29
					C1572.7,464.3,1568.2,459.7,1565.4,457.4z M1655.6,450c-6.1,0-8.4-0.2-8.4,1.1c0,1.3,2.9,0.5,4.8,2c0.6,0.5,1,1,1.4,1.7
					c0.5,1,0.9,2.4,1.2,3.9c0.7,4,0.7,8.8,0.7,8.8l0,0l0,49.3c-6.2-5.9-55.3-54.4-68.2-66.5c-0.5-0.4-1.2-0.7-1.7-0.6
					c-0.9,0.2-1.1,1.1-1.2,1.7l0,98.3c0,0,4.2,0,11.3,0c7.1,0,9.8,0.3,9.8-1.1c0-1.3-2.9-0.5-4.8-2c-0.4-0.4-0.8-0.8-1.1-1.2
					c0-0.1-0.1-0.1-0.1-0.2c0,0,0,0,0,0c-2.1-3.5-2-13-2-13h0V483c0,0,55.9,54,68.8,66.6c0.4,0.2,1.1,0.4,1.6,0.3c0.9-0.3,1-1.4,1-2
					l0,0l0-97.9H1655.6z"/>
			</g>
		</g>
	</g>
	<g>
		<path class="st7" d="M1348.1,538.8c0,1.8,0.2,3.7,0.6,5.6c0.4,1.9,0.8,3.4,1.2,4.4l-1,1.2h-6.4c-0.6,0-1.6,0-3,0
			c-1.3,0-2.7,0-4.1,0s-2.8,0-4.1,0c-1.3,0-2.3,0-3,0l-0.1-0.3l0.1-1.9l0.6-0.5c1.5,0,2.9-0.1,4.4-0.2c1.4-0.1,2.5-0.6,3.2-1.3
			c0.7-0.6,1.2-1.5,1.5-2.5c0.2-1,0.4-2.4,0.6-4.2l0.1-1.2c0-0.8,0-1.8,0.1-2.8c0-1.1,0.1-2.3,0.1-3.8c0-1.5,0.1-3.3,0.1-5.5
			c0-2.1,0-4.8,0-8v-32.9c0-3.7,0-6.9,0-9.5c0-2.6,0-4.9-0.1-6.8c0-1.9-0.1-3.6-0.1-5c-0.1-1.4-0.1-2.9-0.2-4.5
			c-0.1-1-0.3-1.9-0.8-2.6c-0.4-0.7-0.8-1.3-1-1.6c-0.9-1-2.1-1.6-3.5-1.9c-1.4-0.3-2.8-0.4-4.3-0.4l-0.6-0.6v-1.8l0.6-0.6h2.5
			c1.6,0,3.6,0,5.9,0s4.5-0.1,6.2-0.4l4.8-0.7l0.8,1.2c-0.2,0.4-0.3,1-0.5,2c-0.1,1-0.3,2-0.3,3.1c-0.1,1.1-0.2,2.1-0.2,3.2
			c0,1-0.1,1.8-0.1,2.3c0,1.5,0,2.8,0,4.1c0,1.3,0,2.8-0.1,4.5c-0.1,1.7-0.1,3.8-0.1,6.3s0,5.6,0,9.5c0,3.9-0.1,6.8-0.1,8.6
			c-0.1,1.8-0.2,3.2-0.3,4.3l0.4,0.3c2.7-3.8,5.9-7,9.8-9.4c3.9-2.4,8.3-3.6,13.1-3.6c5.3,0,9.8,0.9,13.6,2.7c3.8,1.8,7,4.2,9.5,7.3
			c2.5,3,4.3,6.5,5.5,10.3c1.2,3.9,1.8,7.9,1.8,12.1c0,6.2-1,11.5-2.9,15.8c-1.9,4.3-4.4,7.9-7.4,10.6c-3,2.7-6.3,4.7-9.8,5.9
			c-3.6,1.2-6.9,1.9-10.2,1.9c-4.4,0-8.6-1-12.5-2.9c-3.9-1.9-7.3-5.2-10.2-9.9L1348.1,538.8z M1391,517.5c0-3.1-0.4-6.2-1.2-9.2
			s-2.1-5.7-3.8-8c-1.7-2.3-3.8-4.2-6.4-5.6c-2.6-1.4-5.6-2.1-9.1-2.1c-3.6,0-6.8,0.7-9.5,2.1c-2.8,1.4-5.1,3-7,4.9
			c-1.9,1.9-3.3,3.9-4.3,6s-1.5,3.8-1.5,5.3v14.9c0.3,1.5,0.9,3.2,1.9,5.3c1,2.1,2.4,4,4.2,6c1.8,1.9,4,3.5,6.6,4.9
			c2.6,1.3,5.7,2,9.3,2s6.7-0.8,9.3-2.3c2.6-1.5,4.8-3.5,6.5-6c1.7-2.5,3-5.3,3.8-8.4S1391,520.7,1391,517.5z"/>
		<path class="st7" d="M1412.6,581.2c1.3,0,2.5,0,3.7-0.1s2.3-0.3,3.4-0.6c1.1-0.3,2.2-0.8,3.3-1.6c1.1-0.7,2.2-1.7,3.5-3
			c1.8-1.8,3.3-3.7,4.6-5.7c1.3-2,2.4-4.1,3.2-6.1l4.4-10.9l-9.5-24.4c-0.4-0.8-1-2.3-1.9-4.5s-1.9-4.6-3-7.2
			c-1.1-2.7-2.2-5.4-3.4-8.2s-2.1-5.3-3-7.4c-0.9-2.2-1.8-3.9-2.5-5.1c-0.9-1.4-2-2.6-3.1-3.4c-1.2-0.8-2.7-1.3-4.6-1.5l-0.8-0.7
			v-3.3l0.6-0.6c1.6,0.2,3.2,0.4,5,0.6c1.8,0.2,3.4,0.3,4.8,0.3h5.4c1.5,0,3.3-0.1,5.3-0.3c2.1-0.2,4-0.4,5.9-0.6l0.6,0.6v3
			l-0.6,0.5c-2,0.2-3.7,0.7-5,1.6c-1.3,0.9-2,2.1-2,3.7c0,1.1,0.4,3,1.3,5.7c0.9,2.7,1.9,5.7,3,8.8c1.1,3.1,2.2,6,3.2,8.7
			c1,2.7,1.7,4.5,2.1,5.3l6.9,17.5l6.5-15.5c0.6-1.5,1.5-3.6,2.6-6.2c1.1-2.6,2.2-5.4,3.3-8.4c1.1-3,2-5.9,2.8-8.7
			c0.8-2.8,1.2-5.2,1.2-7.2c0-2-0.7-3.3-2.2-4c-1.5-0.7-3.1-1.1-5-1.3l-0.6-0.5v-3l0.6-0.6c3.6,0.6,7,0.8,10.1,0.8h5.7
			c1.6,0,3.1-0.1,4.5-0.3c1.4-0.2,3-0.4,4.8-0.6l0.6,0.6v3.3l-0.7,0.7c-1.7,0.2-2.9,0.6-3.8,1.3c-0.9,0.7-1.8,1.9-2.8,3.5
			c-0.8,1.4-1.8,3.2-2.8,5.4c-1.1,2.2-2.1,4.5-3.2,7c-1.1,2.5-2.1,5.1-3.2,7.7c-1.1,2.6-2,5-2.9,7.3c-0.9,2.3-1.6,4.2-2.2,5.9
			c-0.6,1.7-1,2.8-1.3,3.4l-13.6,33c-2.4,5.9-5.7,10.2-9.8,13.1c-4.1,2.8-8.5,4.8-13.3,6c-0.9,0.2-1.8,0.3-2.5,0.3
			c-0.7,0-1.6,0-2.5,0l-1.1-0.3l-0.3-3.3L1412.6,581.2z"/>
	</g>
</g>
</svg>
